<?xml version="1.0" encoding="UTF-8"?><svg id="b" xmlns="http://www.w3.org/2000/svg" viewBox="0 0 66 66"><defs><style>.f{fill:#d5f4fa;}.f,.g,.h,.i{stroke-width:0px;}.g{fill:#f4f8fb;}.h{fill:#000;}.i{fill:#8bd3e6;}</style></defs><g id="c"><g id="d"><path class="h" d="M34.71,51.21c-.88-.11-1.77-.07-2.64-.12-1.93-.09-2.09-2.72-.23-3.08.82-.11,1.66-.12,2.47-.08.74.12,1.38.8,2.06,1.13,1.38.62,2.82-.96,1.73-2.25-.19-.25-.39-.53-.65-.68-.73-.43-1.48-.84-2.25-1.18-.4-.17-.65-.29-.6-.84.12-2.14-3.03-2.05-2.95.03,0,.45-.11.6-.54.74-4.37,1.1-5.17,6.94-1.14,8.76h.01c1.44.57,3.02.54,4.53.65,1.52.25,1.74,2.5.16,2.91-1.76.41-3.42.28-4.88-.97-1.83-.86-2.95,1.79-1.24,2.84.93.62,1.95,1.05,3.06,1.21.05,1,.67,2.03,1.75,1.87.77-.13,1.21-.64,1.2-1.38,0-.35.12-.47.45-.57.7-.23,1.41-.48,2.06-.85,3.8-2.46,1.85-7.79-2.37-8.15Z"/><path class="h" d="M33.32,16.64h.01c.68-.01,1.3-.54,1.3-1.22.01-1.33.01-2.66,0-3.99-.01-.72-.6-1.22-1.32-1.21-.68,0-1.13.49-1.16,1.24v3.93c.03.68.54,1.22,1.16,1.25Z"/><path class="h" d="M44.82,17.24c-1.01-.52-1.94.17-2.67.85-2.15,2.07-4.31,4.15-6.47,6.25-.61-.66-1.5-.92-2.31-.92-.41,0-.81.07-1.12.19-.13.05-.36.08-.45,0-2.68-2.42-5.09-5.14-7.67-7.7-.58-.58-1.41-.57-2.01,0-.78.73-.84,1.59-.08,2.41,2.41,2.62,4.92,5.13,7.52,7.55.27.25.28.48.23.84-1.3,5.86,6.09,7.39,7.22,2.09.11-1.25.74-1.93,1.61-2.62,2.06-2.07,4.21-4.05,6.38-5.99.97-.88,1.18-2.33-.17-2.94ZM33.36,29.07c-.68,0-1.21-.49-1.21-1.12,0-.73.53-1.33,1.2-1.34h.01c.66,0,1.29.6,1.29,1.26,0,.62-.6,1.2-1.29,1.2Z"/><path class="h" d="M23.45,43.49h.01c2.88-2.86,6.43-4.03,9.81-3.99,2.31.03,4.55.62,6.42,1.63.9.49,1.74,1.14,2.51,1.85,1.79,1.61,3.52,3.26,5.25,4.92,2.41,2.28,4.82,4.57,7.17,6.91l1.65,1.58c.74-.74,1.45-1.52,2.12-2.33l-3.18-3.04h0s-6.13-5.84-6.13-5.84c-.16-.15-.16-.39-.03-.54,3.68-4.04,6.43-9.94,6.43-16.16,0-5.61-2.09-10.71-5.52-14.62-3.59-4.48-8.86-7.58-15.34-7.95-.47-.03-.94-.04-1.41-.04-7.31-.03-13.21,3.39-17.06,8.37-3.22,3.87-5.14,8.82-5.14,14.23,0,6.18,2.53,11.76,6.58,15.78.16.16.16.41,0,.56l-8.44,8.07h0s-1.45,1.39-1.45,1.39c.67.8,1.39,1.56,2.15,2.3l1.46-1.4c4.03-3.94,8.06-7.68,12.11-11.69ZM17.52,40.26c-.12-.16-.08-.4.07-.53.76-.66,1.49-1.33,2.22-1.98.37-.33.64-.73.51-1.25-.19-.89-1.17-1.26-1.9-.8-.72.52-1.3,1.05-1.93,1.63-.2.17-.53.12-.65-.12-1.26-2.55-1.81-5.24-1.87-8.16,0-.21.19-.41.41-.41,2.13,0,4.19,0,6.31-.03.69,0,1.04-.37,1.08-.97.04-.57-.43-1.21-1-1.33l.03.03c-.2-.04-.41-.04-.62-.04h-5.66c-.24,0-.44-.2-.41-.44,1.04-8.98,8.89-17.65,19.5-17.41,10.47.24,18.26,8.84,18.89,17.4.01.24-.17.43-.4.43-1.91.01-3.83.03-5.73,0-1.16,0-1.58,1.13-1.16,1.86.32.51.96.57,1.5.53h5.54c.23,0,.41.2.4.41-.09,3.06-.62,5.91-1.95,8.67-.51-.47-.94-.89-1.41-1.3-.74-.73-1.86-1.55-2.67-.58-.44.56-.35,1.42.23,1.95.77.65,1.53,1.21,2.31,1.83.16.13.2.39.08.56-.73,1.09-1.41,1.93-2.31,2.8l-.07.03c-3.52-3.54-7.47-6.88-13.66-6.98-5.91.09-9.77,3.14-13.18,6.49-.15.16-.4.16-.54,0-.66-.72-1.41-1.55-1.93-2.29Z"/></g><g id="e"><path class="g" d="M33.36,26.63c.67-.02,1.29.58,1.29,1.24s-.59,1.2-1.29,1.2-1.2-.49-1.2-1.12c0-.73.53-1.32,1.19-1.34v.02Z"/><path class="f" d="M10.42,51.69l-.02.02-1.22,1.17-1.43,1.36C2.92,48.5,0,41.09,0,33,0,14.77,14.77,0,33,0s33,14.77,33,33c0,8.01-2.85,15.35-7.6,21.07l-2.46-2.36h0s-.02-.03-.02-.03l-.55-.52-.14-.14-6.13-5.83c-.08-.08-.12-.18-.12-.28s.03-.19.1-.27c3.67-4.03,6.43-9.93,6.43-16.15h0c0-5.62-2.09-10.72-5.52-14.63-3.59-4.48-8.86-7.57-15.34-7.95h-.12c-.42-.02-.86-.04-1.28-.04-7.31-.02-13.22,3.39-17.07,8.38-1.61,1.93-2.9,4.13-3.78,6.53s-1.36,5-1.36,7.7h0c0,3.25.7,6.33,1.95,9.1,1.13,2.51,2.7,4.77,4.63,6.68.16.16.16.41,0,.56l-3.48,3.31-3.72,3.56Z"/><path class="i" d="M29.98,53.64c1.43.58,3.01.55,4.53.66,1.52.25,1.74,2.5.16,2.91-1.76.41-3.42.28-4.88-.97-1.83-.87-2.95,1.79-1.24,2.84.93.62,1.96,1.05,3.06,1.21.05,1,.67,2.03,1.75,1.87.78-.13,1.21-.63,1.2-1.38,0-.34.12-.46.45-.57.71-.23,1.41-.48,2.06-.85,3.8-2.46,1.85-7.79-2.36-8.15-.88-.1-1.77-.06-2.65-.12-1.92-.09-2.08-2.72-.22-3.08.82-.11,1.66-.12,2.47-.08.74.12,1.38.8,2.06,1.13,1.38.62,2.82-.96,1.73-2.25-.19-.25-.39-.53-.66-.67-.73-.43-1.47-.84-2.24-1.19-.4-.17-.65-.29-.6-.83.12-2.14-3.03-2.05-2.95.02,0,.45-.11.6-.54.75-4.38,1.1-5.17,6.93-1.15,8.75h.02ZM54.63,54.81l1.65,1.58c-5.97,5.94-14.2,9.61-23.28,9.61s-17.15-3.61-23.1-9.45l1.44-1.38c.78-.76,1.57-1.52,2.35-2.27.54-.52,1.08-1.04,1.62-1.55.01-.02.03-.04.05-.05,1.59-1.52,3.17-3.03,4.76-4.56.11-.11.22-.22.33-.32,1-.97,2-1.94,3-2.93h.01c.11-.11.23-.2.34-.31.22-.2.43-.4.65-.58.18-.15.37-.28.55-.42.17-.12.34-.25.51-.36.2-.14.4-.26.6-.38.16-.1.33-.2.5-.29.2-.11.41-.22.62-.32.16-.08.33-.15.5-.22.21-.09.43-.19.64-.27.16-.06.33-.1.49-.16.43-.14.87-.26,1.3-.35.15-.03.29-.07.44-.1.21-.04.43-.06.65-.09.18-.03.35-.05.52-.07.22-.02.44-.03.66-.04.17-.01.34-.02.51-.02.19,0,.38,0,.57.01.46.01.92.04,1.37.1.13.01.26.04.4.06.36.06.72.13,1.07.21.15.03.3.07.44.11.42.11.83.24,1.24.39.15.06.29.12.44.18.36.15.72.31,1.06.49.05.03.11.05.16.08.9.49,1.74,1.14,2.51,1.85,1.8,1.6,3.52,3.25,5.25,4.91,2.1,1.99,4.19,3.98,6.25,6.01.01,0,.01.01.01.01.31.3.62.59.92.89Z"/><path class="g" d="M33.36,23.42c-.41,0-.81.07-1.11.19-.13.05-.36.08-.45,0-2.69-2.42-5.09-5.15-7.67-7.7-.59-.58-1.41-.57-2.01,0-.78.73-.84,1.6-.08,2.41,2.41,2.62,4.92,5.13,7.52,7.55.27.25.28.48.23.84-1.3,5.86,6.09,7.38,7.22,2.08.1-1.25.74-1.93,1.6-2.62,2.06-2.07,4.22-4.05,6.38-5.99.97-.88,1.19-2.33-.17-2.94-1.01-.52-1.94.17-2.67.85-2.15,2.08-4.31,4.15-6.47,6.25-.61-.67-1.5-.92-2.32-.92ZM34.64,11.43c0-.71-.6-1.22-1.32-1.21-.67,0-1.12.5-1.15,1.24v3.93c.03.68.54,1.23,1.15,1.25h.02c.68-.01,1.3-.54,1.3-1.22.01-1.33.01-2.66,0-3.99ZM19.45,42.54c-.66-.72-1.41-1.55-1.93-2.28-.06-.09-.08-.21-.05-.31.02-.08.06-.16.12-.22.76-.67,1.48-1.33,2.22-1.98.28-.25.5-.54.53-.89.02-.11.01-.23-.03-.36-.18-.89-1.17-1.27-1.9-.8-.26.19-.5.39-.74.59-.4.33-.79.67-1.19,1.04-.03.03-.06.04-.1.06-.14.06-.3.05-.42-.03-.05-.04-.09-.08-.12-.14-.2-.4-.37-.8-.53-1.2-.65-1.6-1.04-3.27-1.22-5.01-.07-.64-.11-1.29-.12-1.95-.01-.23.18-.41.4-.41,2.13,0,4.19-.01,6.32-.03.69,0,1.03-.37,1.07-.97h0v-.08c0-.55-.44-1.14-.99-1.25l.02.02c-.2-.04-.41-.04-.62-.04h-5.66c-.11,0-.21-.04-.28-.11-.09-.08-.15-.2-.13-.33.58-5.05,3.32-10.01,7.49-13.33,1.31-1.04,2.77-1.91,4.34-2.59.1-.04.19-.09.29-.13l.24-.09c2.18-.85,4.57-1.32,7.13-1.26,9.88.22,17.36,7.88,18.71,15.94.08.48.14.97.18,1.45.01.24-.18.43-.4.43-1.92.01-3.83.02-5.73,0-.87,0-1.32.63-1.32,1.26,0,.21.06.42.16.6.32.51.96.57,1.51.53h5.54c.17,0,.31.11.37.26.02.04.03.1.03.15-.05,1.52-.21,2.99-.51,4.42-.26,1.2-.63,2.37-1.12,3.52-.11.24-.21.48-.33.72-.5-.46-.94-.89-1.41-1.3-.74-.73-1.86-1.55-2.67-.58-.22.28-.3.63-.26.99.04.35.2.7.49.97.77.65,1.52,1.2,2.31,1.83.12.1.17.27.14.42-.01.04-.03.09-.06.13-.73,1.09-1.41,1.93-2.31,2.81l-.07.02c-3.52-3.53-7.47-6.88-13.66-6.97-5.92.09-9.77,3.13-13.19,6.48-.03.04-.07.07-.12.09-.12.05-.26.03-.37-.05-.02-.01-.04-.02-.05-.04Z"/></g></g></svg>