<?xml version="1.0" encoding="UTF-8"?><svg id="b" xmlns="http://www.w3.org/2000/svg" viewBox="0 0 66 66"><defs><style>.f{fill:none;}.f,.g{stroke-width:0px;}.g{fill:#000;}</style></defs><g id="c"><path id="d" class="f" d="M33.36,26.63c.67-.02,1.29.58,1.29,1.24s-.59,1.2-1.29,1.2-1.2-.49-1.2-1.12c0-.73.53-1.32,1.19-1.34v.02ZM14.14,48.13l3.48-3.31c.16-.15.16-.4,0-.56-1.93-1.91-3.5-4.17-4.63-6.68-1.25-2.77-1.95-5.85-1.95-9.09h0c0-2.71.48-5.31,1.36-7.71s2.17-4.6,3.78-6.53c3.85-4.99,9.76-8.4,17.07-8.38.42,0,.86.02,1.28.04h.12c6.48.38,11.75,3.47,15.34,7.95,3.43,3.91,5.52,9.01,5.52,14.62h0c0,6.23-2.76,12.13-6.43,16.16-.07.08-.1.17-.1.27s.04.2.12.28l6.13,5.83.14.14.55.52.02.02h0s2.46,2.37,2.46,2.37c4.75-5.72,7.6-13.06,7.6-21.07C66,14.77,51.22,0,33,0S0,14.77,0,33c0,8.09,2.92,15.5,7.75,21.24l1.43-1.36,1.22-1.17.02-.02,3.72-3.56ZM29.96,53.64c-4.02-1.82-3.23-7.65,1.15-8.75.43-.15.54-.3.54-.75-.08-2.07,3.07-2.16,2.95-.02-.05.54.2.66.6.83.77.35,1.51.76,2.24,1.19.27.14.47.42.66.67,1.09,1.29-.35,2.87-1.73,2.25-.68-.33-1.32-1.01-2.06-1.13-.81-.04-1.65-.03-2.47.08-1.86.36-1.7,2.99.22,3.08.88.06,1.77.02,2.65.12,4.21.36,6.16,5.69,2.36,8.15-.65.37-1.35.62-2.06.85-.33.11-.45.23-.45.57.01.75-.42,1.25-1.2,1.38-1.08.16-1.7-.87-1.75-1.87-1.1-.16-2.13-.59-3.06-1.21-1.71-1.05-.59-3.71,1.24-2.84,1.46,1.25,3.12,1.38,4.88.97,1.58-.41,1.36-2.66-.16-2.91-1.52-.11-3.1-.08-4.53-.66h-.02ZM53.71,53.92s0-.01-.01-.01c-2.06-2.03-4.15-4.02-6.25-6.01-1.73-1.66-3.45-3.31-5.25-4.91-.77-.71-1.61-1.36-2.51-1.85-.05-.03-.11-.05-.16-.08-.34-.18-.7-.34-1.06-.49-.15-.06-.29-.12-.44-.18-.41-.15-.82-.28-1.24-.39-.14-.04-.29-.08-.44-.11-.35-.08-.71-.15-1.07-.21-.14-.02-.27-.05-.4-.06-.45-.06-.91-.09-1.37-.1-.19-.01-.38-.01-.57-.01-.17,0-.34.01-.51.02-.22.01-.44.02-.66.04-.17.02-.34.04-.52.07-.22.03-.44.05-.65.09-.15.03-.29.07-.44.1-.43.09-.87.21-1.3.35-.16.06-.33.1-.49.16-.21.08-.43.18-.64.27-.17.07-.34.14-.5.22-.21.1-.42.21-.62.32-.17.09-.34.19-.5.29-.2.12-.4.24-.6.38-.17.11-.34.24-.51.36-.18.14-.37.27-.55.42-.22.18-.43.38-.65.58-.11.11-.23.2-.34.31h-.01c-1,.99-2,1.96-3,2.93-.11.1-.22.21-.33.32-1.59,1.53-3.17,3.04-4.76,4.56-.02.01-.04.03-.05.05-.54.51-1.08,1.03-1.62,1.55-.78.75-1.57,1.51-2.35,2.27l-1.44,1.38c5.95,5.84,14.1,9.45,23.1,9.45s17.31-3.67,23.28-9.61l-1.65-1.58c-.3-.3-.61-.59-.92-.89ZM35.68,24.34c2.16-2.1,4.32-4.17,6.47-6.25.73-.68,1.66-1.37,2.67-.85,1.36.61,1.14,2.06.17,2.94-2.16,1.94-4.32,3.92-6.38,5.99-.86.69-1.5,1.37-1.6,2.62-1.13,5.3-8.52,3.78-7.22-2.08.05-.36.04-.59-.23-.84-2.6-2.42-5.11-4.93-7.52-7.55-.76-.81-.7-1.68.08-2.41.6-.57,1.42-.58,2.01,0,2.58,2.55,4.98,5.28,7.67,7.7.09.08.32.05.45,0,.3-.12.7-.19,1.11-.19.82,0,1.71.25,2.32.92ZM34.64,15.42c0,.68-.62,1.21-1.3,1.22h-.02c-.61-.02-1.12-.57-1.15-1.25v-3.93c.03-.74.48-1.24,1.15-1.24.72-.01,1.31.5,1.32,1.21.01,1.33.01,2.66,0,3.99ZM19.5,42.58c.11.08.25.1.37.05.05-.02.09-.05.12-.09,3.42-3.35,7.27-6.39,13.19-6.48,6.19.09,10.14,3.44,13.66,6.97l.07-.02c.9-.88,1.58-1.72,2.31-2.81.03-.04.05-.09.06-.13.03-.15-.02-.32-.14-.42-.79-.63-1.54-1.18-2.31-1.83-.29-.27-.45-.62-.49-.97-.04-.36.04-.71.26-.99.81-.97,1.93-.15,2.67.58.47.41.91.84,1.41,1.3.12-.24.22-.48.33-.72.49-1.15.86-2.32,1.12-3.52.3-1.43.46-2.9.51-4.42,0-.05,0-.11-.03-.15-.06-.15-.2-.26-.37-.26h-5.54c-.55.04-1.19-.02-1.51-.53-.1-.18-.16-.39-.16-.6,0-.63.45-1.26,1.32-1.26,1.9.02,3.81.01,5.73,0,.22,0,.41-.19.4-.43-.04-.48-.1-.97-.18-1.45-1.35-8.06-8.83-15.72-18.71-15.94-2.56-.06-4.95.41-7.13,1.26l-.24.09c-.1.04-.19.09-.29.13-1.57.68-3.03,1.55-4.34,2.59-4.17,3.32-6.91,8.28-7.49,13.33-.02.13.04.25.13.33.07.07.17.11.28.11h5.66c.21,0,.42,0,.62.04l-.02-.02c.55.11.99.7.99,1.25v.07h0c-.04.61-.38.98-1.07.98-2.13.02-4.19.03-6.32.03-.22,0-.41.18-.4.41.01.66.05,1.31.12,1.95.18,1.74.57,3.41,1.22,5.01.16.4.33.8.53,1.2.03.06.07.1.12.14.12.08.28.09.42.03.04-.02.07-.03.1-.06.4-.37.79-.71,1.19-1.04.24-.2.48-.4.74-.59.73-.47,1.72-.09,1.9.8.04.13.05.25.03.36-.03.35-.25.64-.53.89-.74.65-1.46,1.31-2.22,1.98-.06.06-.1.14-.12.22-.03.1-.01.22.05.31.52.73,1.27,1.56,1.93,2.28.01.02.03.03.05.04Z"/><g id="e"><path class="g" d="M34.71,51.21c-.88-.11-1.77-.07-2.64-.12-1.93-.09-2.09-2.72-.23-3.08.82-.11,1.66-.12,2.47-.08.74.12,1.38.8,2.06,1.13,1.38.62,2.82-.96,1.73-2.25-.19-.25-.39-.53-.65-.68-.73-.43-1.48-.84-2.25-1.18-.4-.17-.65-.29-.6-.84.12-2.14-3.03-2.05-2.95.03,0,.45-.11.6-.54.74-4.37,1.1-5.17,6.94-1.14,8.76h.01c1.44.57,3.02.54,4.53.65,1.52.25,1.74,2.5.16,2.91-1.76.41-3.42.28-4.88-.97-1.83-.86-2.95,1.79-1.24,2.84.93.62,1.95,1.05,3.06,1.21.05,1,.67,2.03,1.75,1.87.77-.13,1.21-.64,1.2-1.38,0-.35.12-.47.45-.57.7-.23,1.41-.48,2.06-.85,3.8-2.46,1.85-7.79-2.37-8.15Z"/><path class="g" d="M33.32,16.64h.01c.68-.01,1.3-.54,1.3-1.22.01-1.33.01-2.66,0-3.99-.01-.72-.6-1.22-1.32-1.21-.68,0-1.13.49-1.16,1.24v3.93c.03.68.54,1.22,1.16,1.25Z"/><path class="g" d="M44.82,17.24c-1.01-.52-1.94.17-2.67.85-2.15,2.07-4.31,4.15-6.47,6.25-.61-.66-1.5-.92-2.31-.92-.41,0-.81.07-1.12.19-.13.05-.36.08-.45,0-2.68-2.42-5.09-5.14-7.67-7.7-.58-.58-1.41-.57-2.01,0-.78.73-.84,1.59-.08,2.41,2.41,2.62,4.92,5.13,7.52,7.55.27.25.28.48.23.84-1.3,5.86,6.09,7.39,7.22,2.09.11-1.25.74-1.93,1.61-2.62,2.06-2.07,4.21-4.05,6.38-5.99.97-.88,1.18-2.33-.17-2.94ZM33.36,29.07c-.68,0-1.21-.49-1.21-1.12,0-.73.53-1.33,1.2-1.34h.01c.66,0,1.29.6,1.29,1.26,0,.62-.6,1.2-1.29,1.2Z"/><path class="g" d="M23.45,43.49h.01c2.88-2.86,6.43-4.03,9.81-3.99,2.31.03,4.55.62,6.42,1.63.9.49,1.74,1.14,2.51,1.85,1.79,1.61,3.52,3.26,5.25,4.92,2.41,2.28,4.82,4.57,7.17,6.91l1.65,1.58c.74-.74,1.45-1.52,2.12-2.33l-3.18-3.04h0s-6.13-5.84-6.13-5.84c-.16-.15-.16-.39-.03-.54,3.68-4.04,6.43-9.94,6.43-16.16,0-5.61-2.09-10.71-5.52-14.62-3.59-4.48-8.86-7.58-15.34-7.95-.47-.03-.94-.04-1.41-.04-7.31-.03-13.21,3.39-17.06,8.37-3.22,3.87-5.14,8.82-5.14,14.23,0,6.18,2.53,11.76,6.58,15.78.16.16.16.41,0,.56l-8.44,8.07h0s-1.45,1.39-1.45,1.39c.67.8,1.39,1.56,2.15,2.3l1.46-1.4c4.03-3.94,8.06-7.68,12.11-11.69ZM17.52,40.26c-.12-.16-.08-.4.07-.53.76-.66,1.49-1.33,2.22-1.98.37-.33.64-.73.51-1.25-.19-.89-1.17-1.26-1.9-.8-.72.52-1.3,1.05-1.93,1.63-.2.17-.53.12-.65-.12-1.26-2.55-1.81-5.24-1.87-8.16,0-.21.19-.41.41-.41,2.13,0,4.19,0,6.31-.03.69,0,1.04-.37,1.08-.97.04-.57-.43-1.21-1-1.33l.03.03c-.2-.04-.41-.04-.62-.04h-5.66c-.24,0-.44-.2-.41-.44,1.04-8.98,8.89-17.65,19.5-17.41,10.47.24,18.26,8.84,18.89,17.4.01.24-.17.43-.4.43-1.91.01-3.83.03-5.73,0-1.16,0-1.58,1.13-1.16,1.86.32.51.96.57,1.5.53h5.54c.23,0,.41.2.4.41-.09,3.06-.62,5.91-1.95,8.67-.51-.47-.94-.89-1.41-1.3-.74-.73-1.86-1.55-2.67-.58-.44.56-.35,1.42.23,1.95.77.65,1.53,1.21,2.31,1.83.16.13.2.39.08.56-.73,1.09-1.41,1.93-2.31,2.8l-.07.03c-3.52-3.54-7.47-6.88-13.66-6.98-5.91.09-9.77,3.14-13.18,6.49-.15.16-.4.16-.54,0-.66-.72-1.41-1.55-1.93-2.29Z"/></g></g></svg>