<?xml version="1.0" encoding="UTF-8"?><svg id="b" xmlns="http://www.w3.org/2000/svg" viewBox="0 0 66 66"><defs><style>.f{fill:#000;stroke-width:0px;}</style></defs><g id="c"><g id="d"><path class="f" d="M34.71,51.17c-.88-.11-1.77-.07-2.64-.12-1.93-.09-2.09-2.72-.23-3.08.82-.11,1.66-.12,2.47-.08.74.12,1.38.8,2.06,1.13,1.38.62,2.82-.96,1.73-2.25-.19-.25-.39-.53-.65-.68-.73-.43-1.48-.84-2.25-1.18-.4-.17-.65-.29-.6-.84.12-2.14-3.03-2.05-2.95.03,0,.45-.11.6-.54.74-4.37,1.1-5.17,6.94-1.14,8.76h.01c1.44.57,3.02.54,4.53.65,1.52.25,1.74,2.5.16,2.91-1.76.41-3.42.28-4.88-.97-1.83-.86-2.95,1.79-1.24,2.84.93.62,1.95,1.05,3.06,1.21.05,1,.67,2.03,1.75,1.87.77-.13,1.21-.64,1.2-1.38,0-.35.12-.47.45-.57.7-.23,1.41-.48,2.06-.85,3.8-2.46,1.85-7.79-2.37-8.15Z"/><path class="f" d="M33,0c18.19,0,33,14.81,33,33s-14.81,33-33,33c-8.59,0-16.71-3.27-22.86-9.21C3.6,50.52,0,42.06,0,33,0,14.81,14.81,0,33,0ZM56.98,52.64c4.39-5.36,7.03-12.19,7.03-19.64,0-16.44-12.87-29.93-29.05-30.94-.65-.04-1.3-.07-1.95-.07C15.91,1.99,1.99,15.91,1.99,33c0,7.36,2.54,14.29,7.19,19.84l8.44-8.07c.16-.15.16-.4,0-.56-4.05-4.01-6.58-9.6-6.58-15.78,0-5.41,1.93-10.37,5.14-14.23,3.85-4.98,9.76-8.4,17.06-8.37.47,0,.94.01,1.41.04,6.47.37,11.75,3.47,15.34,7.95,3.43,3.91,5.52,9.01,5.52,14.62,0,6.22-2.75,12.12-6.43,16.16-.13.16-.13.4.03.54l7.87,7.5ZM52.64,29.04c.01-.21-.17-.41-.4-.41h-5.54c-.54.04-1.18-.03-1.5-.53-.43-.73,0-1.86,1.16-1.86,1.9.03,3.81.01,5.73,0,.23,0,.41-.19.4-.43-.62-8.56-8.41-17.16-18.89-17.4-10.61-.24-18.46,8.43-19.5,17.41-.03.24.17.44.41.44h5.66c.21,0,.43,0,.62.04l-.03-.03c.57.12,1.04.76,1,1.33-.04.6-.39.97-1.08.97-2.13.03-4.19.03-6.31.03-.23,0-.41.2-.41.41.07,2.92.61,5.61,1.87,8.16.12.24.45.29.65.12.62-.58,1.21-1.12,1.93-1.63.73-.47,1.71-.09,1.9.8.13.52-.13.92-.51,1.25-.73.65-1.46,1.32-2.22,1.98-.15.13-.19.37-.07.53.52.73,1.26,1.57,1.93,2.29.15.16.4.16.54,0,3.42-3.35,7.27-6.39,13.18-6.49,6.19.09,10.14,3.44,13.66,6.98l.07-.03c.9-.88,1.58-1.71,2.31-2.8.12-.17.08-.43-.08-.56-.78-.62-1.54-1.18-2.31-1.83-.57-.53-.66-1.4-.23-1.95.81-.97,1.93-.15,2.67.58.47.41.9.84,1.41,1.3,1.33-2.75,1.86-5.61,1.95-8.67ZM54.85,54.98c-2.42-2.42-4.9-4.77-7.39-7.12-1.73-1.66-3.46-3.31-5.25-4.92-.77-.7-1.61-1.36-2.51-1.85-1.87-1.01-4.11-1.61-6.42-1.63-3.38-.04-6.92,1.13-9.81,3.99h-.01c-4.05,4.01-8.09,7.76-12.13,11.71l.2.2c5.78,5.58,13.41,8.65,21.48,8.65.15,0,.28,0,.43-.01,8.35-.11,15.91-3.52,21.42-9.01Z"/><path id="e" class="f" d="M55.94,51.67s0,0,0,0l-.02-.02s0,0,0,0h0s-6.82-6.49-6.82-6.49c-.16-.15-.16-.39-.02-.55,3.67-4.04,6.43-9.94,6.43-16.16,0-5.61-2.09-10.71-5.52-14.62-3.84-4.78-9.64-8.01-16.75-7.99-7.31-.03-13.21,3.39-17.06,8.37-3.22,3.87-5.14,8.82-5.14,14.23,0,6.18,2.52,11.75,6.58,15.77.16.16.16.41,0,.56l-7.19,6.87h0s0,0,0,0l-.02.02s0,0,0,0c-.59.61-.6,1.58,0,2.18.6.61,1.58.62,2.19.04,0,0,0,0,0,0,3.62-3.5,7.23-6.88,10.85-10.46h.01c4.85-4.8,11.58-4.85,16.23-2.35.9.49,1.74,1.14,2.51,1.85,1.79,1.61,3.52,3.26,5.25,4.92,2.09,1.99,4.19,3.98,6.25,6.01,0,0,.01,0,.02.01,0,0,.01,0,.02,0,.62.6,1.6.58,2.21-.03.6-.61.59-1.58,0-2.19ZM46.92,42.97l-.07.03c-3.52-3.54-7.47-6.88-13.66-6.98-5.91.09-9.77,3.14-13.18,6.48-.16.15-.4.15-.56,0-.66-.71-1.41-1.56-1.92-2.28-.12-.17-.08-.39.07-.53.75-.67,1.48-1.33,2.22-1.98.37-.33.64-.73.51-1.25-.19-.89-1.17-1.26-1.9-.8-.72.51-1.3,1.04-1.93,1.63-.2.18-.52.13-.64-.11-1.27-2.56-1.82-5.25-1.87-8.16,0-.23.18-.41.41-.41,2.13,0,4.19,0,6.31-.03.69,0,1.04-.37,1.08-.97.04-.57-.43-1.21-1-1.33l.03.03c-.2-.04-.41-.04-.62-.04h-5.67c-.24,0-.43-.21-.4-.45,1.04-8.99,8.89-17.65,19.49-17.4,10.47.24,18.26,8.83,18.89,17.4.02.23-.17.43-.4.43-1.91,0-3.82.02-5.73,0-1.16,0-1.58,1.13-1.16,1.86.32.51.96.57,1.5.53h5.54c.22,0,.41.19.4.41-.09,3.05-.63,5.9-1.96,8.66-.51-.47-.94-.89-1.41-1.3-.74-.73-1.86-1.55-2.67-.58-.44.56-.35,1.42.23,1.95.77.65,1.52,1.2,2.31,1.83.16.13.2.39.08.56-.73,1.08-1.4,1.92-2.31,2.8Z"/><path class="f" d="M33.33,16.6h.01c.68-.01,1.3-.54,1.3-1.22.01-1.33.01-2.66,0-3.99-.01-.72-.6-1.22-1.32-1.21-.68,0-1.13.49-1.16,1.24v3.93c.03.68.54,1.22,1.16,1.25Z"/><path class="f" d="M44.83,17.2c-1.01-.52-1.94.17-2.67.85-2.15,2.07-4.31,4.15-6.47,6.25-.61-.66-1.5-.92-2.31-.92-.41,0-.81.07-1.12.19-.13.05-.36.08-.45,0-2.68-2.42-5.09-5.14-7.67-7.7-.58-.58-1.41-.57-2.01,0-.78.73-.84,1.59-.08,2.41,2.41,2.62,4.92,5.13,7.52,7.55.27.25.28.48.23.84-1.3,5.86,6.09,7.39,7.22,2.09.11-1.25.74-1.93,1.61-2.62,2.06-2.07,4.21-4.05,6.38-5.99.97-.88,1.18-2.33-.17-2.94ZM33.37,29.03c-.68,0-1.21-.49-1.21-1.12,0-.73.53-1.33,1.2-1.34h.01c.66,0,1.29.6,1.29,1.26,0,.62-.6,1.2-1.29,1.2Z"/></g></g></svg>