<?xml version="1.0" encoding="UTF-8"?><svg id="b" xmlns="http://www.w3.org/2000/svg" viewBox="0 0 66 66"><defs><style>.f{fill:#d5f4fa;}.f,.g,.h,.i{stroke-width:0px;}.g{fill:#1a1a1a;}.h{fill:#f4f8fb;}.i{fill:#8bd3e6;}</style></defs><g id="c"><g id="d"><path class="i" d="M47.46,47.86c-1.73-1.66-3.46-3.31-5.25-4.92-.77-.7-1.61-1.36-2.51-1.85-1.87-1.01-4.11-1.61-6.42-1.63-3.38-.04-6.92,1.13-9.81,3.99h-.01c-4.05,4.01-8.09,7.76-12.13,11.71l.2.2c5.78,5.58,13.41,8.65,21.48,8.65.15,0,.28,0,.43-.01,8.35-.11,15.91-3.52,21.42-9.01-2.42-2.42-4.9-4.77-7.39-7.12ZM37.08,59.31c-.65.37-1.36.62-2.06.85-.33.11-.45.23-.45.57.01.74-.43,1.25-1.2,1.38-1.09.16-1.7-.88-1.75-1.87-1.1-.16-2.13-.58-3.06-1.21-1.71-1.05-.6-3.71,1.24-2.84,1.46,1.26,3.12,1.4,4.88.97,1.58-.4,1.37-2.66-.16-2.91-1.52-.11-3.1-.08-4.53-.65h-.01c-4.03-1.82-3.23-7.66,1.14-8.76.44-.15.54-.29.54-.74-.04-1.05.74-1.59,1.53-1.59s1.48.52,1.42,1.57c-.05.54.2.66.6.84.77.35,1.52.76,2.25,1.18.27.15.47.43.65.68,1.09,1.29-.35,2.87-1.73,2.25-.68-.33-1.32-1.01-2.06-1.13-.81-.04-1.65-.03-2.47.08-1.86.36-1.7,2.99.23,3.08.88.05,1.77.01,2.64.12,4.21.36,6.17,5.69,2.37,8.15Z"/><path class="h" d="M33.37,26.58c.66-.01,1.29.58,1.29,1.25,0,.62-.6,1.2-1.29,1.2s-1.21-.49-1.21-1.12c0-.73.53-1.33,1.2-1.34h.01Z"/><path class="h" d="M52.24,28.63c.23,0,.41.2.4.41-.09,3.06-.62,5.91-1.95,8.67-.51-.47-.94-.89-1.41-1.3-.74-.73-1.86-1.55-2.67-.58-.44.56-.35,1.42.23,1.95.77.65,1.53,1.21,2.31,1.83.16.13.2.39.08.56-.73,1.09-1.41,1.93-2.31,2.8l-.07.03c-3.52-3.54-7.47-6.88-13.66-6.98-5.91.09-9.77,3.14-13.18,6.49-.15.16-.4.16-.54,0-.66-.72-1.41-1.55-1.93-2.29-.12-.16-.08-.4.07-.53.76-.66,1.49-1.33,2.22-1.98.37-.33.64-.73.51-1.25-.19-.89-1.17-1.26-1.9-.8-.72.52-1.3,1.05-1.93,1.63-.2.17-.53.12-.65-.12-1.26-2.55-1.81-5.24-1.87-8.16,0-.21.19-.41.41-.41,2.13,0,4.19,0,6.31-.03.69,0,1.04-.37,1.08-.97.04-.57-.43-1.21-1-1.33l.03.03c-.2-.04-.41-.04-.62-.04h-5.66c-.24,0-.44-.2-.41-.44,1.04-8.98,8.89-17.65,19.5-17.41,10.47.24,18.26,8.84,18.89,17.4.01.24-.17.43-.4.43-1.91.01-3.83.03-5.73,0-1.16,0-1.58,1.13-1.16,1.86.32.51.96.57,1.5.53h5.54ZM45,20.13c.97-.88,1.18-2.33-.17-2.94-1.01-.52-1.94.17-2.67.85-2.15,2.07-4.31,4.15-6.47,6.25-.61-.66-1.5-.92-2.31-.92-.41,0-.81.07-1.12.19-.13.05-.36.08-.45,0-2.68-2.42-5.09-5.14-7.67-7.7-.58-.58-1.41-.57-2.01,0-.78.73-.84,1.59-.08,2.41,2.41,2.62,4.92,5.13,7.52,7.55.27.25.28.48.23.84-1.3,5.86,6.09,7.39,7.22,2.09.11-1.25.74-1.93,1.61-2.62,2.06-2.07,4.21-4.05,6.38-5.99ZM34.65,15.38c.01-1.33.01-2.66,0-3.99-.01-.72-.6-1.22-1.32-1.21-.68,0-1.13.49-1.16,1.24v3.93c.03.68.54,1.22,1.16,1.25h.01c.68-.01,1.3-.54,1.3-1.22Z"/><path class="f" d="M34.95,2.06c-.65-.04-1.3-.07-1.95-.07C15.91,1.99,1.99,15.91,1.99,33c0,7.36,2.54,14.29,7.19,19.84l8.44-8.07c.16-.15.16-.4,0-.56-4.05-4.01-6.58-9.6-6.58-15.78,0-5.41,1.93-10.37,5.14-14.23,3.85-4.98,9.76-8.4,17.06-8.37.47,0,.94.01,1.41.04,6.47.37,11.75,3.47,15.34,7.95,3.43,3.91,5.52,9.01,5.52,14.62,0,6.22-2.75,12.12-6.43,16.16-.13.16-.13.4.03.54l7.87,7.5c4.39-5.36,7.03-12.19,7.03-19.64,0-16.44-12.87-29.93-29.05-30.94Z"/></g><g id="e"><path class="g" d="M33,0c18.19,0,33,14.81,33,33s-14.81,33-33,33c-8.59,0-16.71-3.27-22.86-9.21C3.6,50.52,0,42.06,0,33,0,14.81,14.81,0,33,0ZM56.98,52.64c4.39-5.36,7.03-12.19,7.03-19.64,0-16.44-12.87-29.93-29.05-30.94-.65-.04-1.3-.07-1.95-.07C15.91,1.99,1.99,15.91,1.99,33c0,7.36,2.54,14.29,7.19,19.84l8.44-8.07c.16-.15.16-.4,0-.56-4.05-4.01-6.58-9.6-6.58-15.78,0-5.41,1.93-10.37,5.14-14.23,3.85-4.98,9.76-8.4,17.06-8.37.47,0,.94.01,1.41.04,6.47.37,11.75,3.47,15.34,7.95,3.43,3.91,5.52,9.01,5.52,14.62,0,6.22-2.75,12.12-6.43,16.16-.13.16-.13.4.03.54l7.87,7.5ZM52.64,29.04c.01-.21-.17-.41-.4-.41h-5.54c-.54.04-1.18-.03-1.5-.53-.43-.73,0-1.86,1.16-1.86,1.9.03,3.81.01,5.73,0,.23,0,.41-.19.4-.43-.62-8.56-8.41-17.16-18.89-17.4-10.61-.24-18.46,8.43-19.5,17.41-.03.24.17.44.41.44h5.66c.21,0,.43,0,.62.04l-.03-.03c.57.12,1.04.76,1,1.33-.04.6-.39.97-1.08.97-2.13.03-4.19.03-6.31.03-.23,0-.41.2-.41.41.07,2.92.61,5.61,1.87,8.16.12.24.45.29.65.12.62-.58,1.21-1.12,1.93-1.63.73-.47,1.71-.09,1.9.8.13.52-.13.92-.51,1.25-.73.65-1.46,1.32-2.22,1.98-.15.13-.19.37-.07.53.52.73,1.26,1.57,1.93,2.29.15.16.4.16.54,0,3.42-3.35,7.27-6.39,13.18-6.49,6.19.09,10.14,3.44,13.66,6.98l.07-.03c.9-.88,1.58-1.71,2.31-2.8.12-.17.08-.43-.08-.56-.78-.62-1.54-1.18-2.31-1.83-.57-.53-.66-1.4-.23-1.95.81-.97,1.93-.15,2.67.58.47.41.9.84,1.41,1.3,1.33-2.75,1.86-5.61,1.95-8.67ZM54.85,54.98c-2.42-2.42-4.9-4.77-7.39-7.12-1.73-1.66-3.46-3.31-5.25-4.92-.77-.7-1.61-1.36-2.51-1.85-1.87-1.01-4.11-1.61-6.42-1.63-3.38-.04-6.92,1.13-9.81,3.99h-.01c-4.05,4.01-8.09,7.76-12.13,11.71l.2.2c5.78,5.58,13.41,8.65,21.48,8.65.15,0,.28,0,.43-.01,8.35-.11,15.91-3.52,21.42-9.01Z"/><path class="g" d="M44.83,17.2c1.36.61,1.14,2.06.17,2.94-2.17,1.94-4.32,3.92-6.38,5.99-.86.69-1.5,1.37-1.61,2.62-1.13,5.3-8.52,3.77-7.22-2.09.05-.36.04-.58-.23-.84-2.6-2.42-5.12-4.93-7.52-7.55-.76-.81-.7-1.67.08-2.41.6-.57,1.42-.58,2.01,0,2.58,2.55,4.98,5.28,7.67,7.7.09.08.32.05.45,0,.31-.12.7-.19,1.12-.19.81,0,1.7.25,2.31.92,2.17-2.1,4.32-4.17,6.47-6.25.73-.68,1.66-1.37,2.67-.85ZM34.66,27.83c0-.66-.62-1.26-1.29-1.25h-.01c-.66,0-1.2.6-1.2,1.33,0,.62.53,1.12,1.21,1.12s1.29-.57,1.29-1.2Z"/><path class="g" d="M38.1,46.77c1.09,1.29-.35,2.87-1.73,2.25-.68-.33-1.32-1.01-2.06-1.13-.81-.04-1.65-.03-2.47.08-1.86.36-1.7,2.99.23,3.08.88.05,1.77.01,2.64.12,4.21.36,6.17,5.69,2.37,8.15-.65.37-1.36.62-2.06.85-.33.11-.45.23-.45.57.01.74-.43,1.25-1.2,1.38-1.09.16-1.7-.88-1.75-1.87-1.1-.16-2.13-.58-3.06-1.21-1.71-1.05-.6-3.71,1.24-2.84,1.46,1.26,3.12,1.4,4.88.97,1.58-.4,1.37-2.66-.16-2.91-1.52-.11-3.1-.08-4.53-.65h-.01c-4.03-1.82-3.23-7.66,1.14-8.76.44-.15.54-.29.54-.74-.04-1.05.74-1.59,1.53-1.59s1.48.52,1.42,1.57c-.05.54.2.66.6.84.77.35,1.52.76,2.25,1.18.27.15.47.43.65.68Z"/><path class="g" d="M34.65,11.39c.01,1.33.01,2.66,0,3.99,0,.68-.62,1.21-1.3,1.22h-.01c-.61-.03-1.13-.57-1.16-1.25v-3.93c.03-.74.48-1.24,1.16-1.24.72-.01,1.3.49,1.32,1.21Z"/></g></g></svg>